Coordinates
version=1
nRows=17
nColumns=36
inDegrees=yes

Units are S.I. units (second, meters, Newtons, ...)
If the header above contains a line with 'inDegrees', this indicates whether rotational values are in degrees (yes) or radians (no).

endheader
time	pelvis_tilt	pelvis_list	pelvis_rotation	pelvis_tx	pelvis_ty	pelvis_tz	hip_flexion_r	hip_adduction_r	hip_rotation_r	knee_angle_r	knee_angle_r_beta	ankle_angle_r	subtalar_angle_r	mtp_angle_r	hip_flexion_l	hip_adduction_l	hip_rotation_l	knee_angle_l	knee_angle_l_beta	ankle_angle_l	subtalar_angle_l	mtp_angle_l	lumbar_extension	lumbar_bending	lumbar_rotation	arm_flex_r	arm_add_r	arm_rot_r	elbow_flex_r	pro_sup_r	arm_flex_l	arm_add_l	arm_rot_l	elbow_flex_l	pro_sup_l
     12.36666670	     11.94500353	     -5.14507027	     -3.52104592	     -0.16704330	      0.68171155	     -0.04240083	     60.53542302	     -3.84677618	     -4.50035801	     87.01247145	      1.51865412	     17.62720273	     -4.67661157	     -7.49999987	     65.33138543	    -18.90932389	      5.19391329	     92.66261322	      1.61726769	     19.59800940	     12.67351559	     -7.49999987	    -25.86269795	      4.74576629	      8.34741870	     13.92424645	    -11.90449082	      3.63879708	     58.36438789	     99.35870353	     18.16059006	      2.56969297	      5.46181003	     42.88756894	     64.21356409
     12.38333330	     11.99597655	     -5.00095652	     -3.42564114	     -0.16743840	      0.68126845	     -0.04254268	     60.56890064	     -3.98382728	     -4.41986582	     87.13232312	      1.52074592	     17.43501103	     -4.66826509	     -7.49999987	     65.26526823	    -18.74123162	      5.11422589	     92.65746931	      1.61717792	     19.18324015	     12.04482514	     -7.49999987	    -25.92427815	      4.52843061	      8.20704455	     13.86662137	    -11.83300060	      3.62436369	     58.63174367	     97.92260292	     18.11795063	      2.49865054	      5.39190562	     43.35729574	     64.07105305
     12.40000000	     11.96969609	     -5.13381695	     -3.46695485	     -0.16732384	      0.68155664	     -0.04243256	     60.55580402	     -3.80966998	     -4.52940807	     87.15840794	      1.52120119	     17.81130269	     -4.68839580	     -7.49999987	     65.36747330	    -18.95589938	      5.26218369	     92.78908346	      1.61947502	     19.76044279	     13.05228775	     -7.49999987	    -25.76878972	      4.64843473	      8.29584834	     13.75568292	    -11.82583007	      3.65569194	     58.79706161	     97.51558810	     17.99360795	      2.54674151	      5.05732066	     42.97356256	     63.74094824
     12.41666670	     11.89694193	     -5.18886443	     -3.43399720	     -0.16733378	      0.68105115	     -0.04248606	     60.60845343	     -3.77697474	     -4.61164193	     87.15506904	      1.52114291	     17.77044774	     -4.80955183	     -7.49999987	     65.49917606	    -18.98090099	      5.35676804	     92.82863414	      1.62016531	     19.72506489	     12.99897012	     -7.49999987	    -25.54593890	      4.72020901	      8.46817103	     13.56614320	    -11.86871701	      3.41844342	     59.03798692	     98.25091740	     18.05868929	      2.75987226	      4.66442609	     42.40799414	     63.22339066
     12.43333330	     11.64901442	     -5.17065407	     -3.38896206	     -0.16686578	      0.68129309	     -0.04256817	     60.85327659	     -3.81829152	     -4.67696599	     87.23137064	      1.52247463	     17.92392183	     -4.72682750	     -7.49999987	     65.78595730	    -18.94688979	      5.40481483	     92.90476453	      1.62149403	     19.96417508	     13.12578403	     -7.49999987	    -25.56233441	      4.63982434	      8.71209688	     13.26400416	    -11.83700925	      2.69358312	     59.62709811	     99.04604187	     18.08126223	      2.77521523	      4.98458922	     42.52174653	     62.21509339
     12.45000000	     11.50815581	     -5.09977036	     -3.39410944	     -0.16670193	      0.68081032	     -0.04253219	     61.01748604	     -3.84633906	     -4.64548935	     87.27430069	      1.52322390	     17.98439967	     -4.76236571	     -7.49999987	     65.89380472	    -18.92428019	      5.33828580	     92.90954757	      1.62157751	     20.02004094	     13.12975414	     -7.49999987	    -25.66369558	      4.44076105	      8.58012716	     13.26796329	    -11.77330129	      2.78807823	     59.87628985	     97.68522264	     18.17388169	      2.72822018	      4.97360653	     42.92847919	     62.11651166
     12.46666670	     11.39670848	     -5.10756338	     -3.39554449	     -0.16634914	      0.68111504	     -0.04251195	     61.11260088	     -3.82789909	     -4.67519236	     87.27028689	      1.52315385	     18.01810719	     -4.78358368	     -7.49999987	     65.99413194	    -18.94082813	      5.35888830	     92.89870259	      1.62138823	     20.10317568	     13.28720932	     -7.49999987	    -25.68838201	      4.37132381	      8.53967829	     13.22415176	    -11.75701882	      2.93090836	     59.97505063	     96.22875469	     18.25324017	      2.71337492	      5.04974303	     43.15348752	     62.01351102
     12.48333330	     11.47047296	     -5.15633879	     -3.43393822	     -0.16706966	      0.67527515	     -0.04379212	     61.19835619	     -3.78495943	     -4.66836159	     87.40790010	      1.52555565	     18.06247370	     -4.82335758	     -7.49999987	     66.12570353	    -19.02842905	      5.39566048	     93.10551338	      1.62499776	     20.13198331	     13.33281305	     -7.49999987	    -25.73086444	      4.35657654	      8.49137665	     13.30029555	    -11.71577806	      2.94420460	     59.99757799	     96.36966308	     18.46597694	      2.83673111	      5.10273640	     43.17855563	     62.02240117
     12.50000000	     11.37534743	     -4.97943605	     -3.44739179	     -0.16604609	      0.68114829	     -0.04247804	     61.35416454	     -3.89467334	     -4.52056823	     87.53171580	      1.52771664	     18.18628387	     -4.83442839	     -7.49999987	     66.13530555	    -18.89366523	      5.24920407	     93.09050307	      1.62473578	     20.17228439	     13.17541325	     -7.49999987	    -26.04837748	      4.15179068	      8.24320219	     13.26821075	    -11.57578432	      2.85103943	     60.41357465	     94.13187190	     18.23959160	      2.64355682	      4.98976602	     44.14776510	     61.92956794
     12.51666670	     11.36131301	     -5.16070741	     -3.44858059	     -0.16616230	      0.68063630	     -0.04255929	     61.25547648	     -3.77514764	     -4.69681583	     87.40360673	      1.52548072	     17.98776098	     -4.77951050	     -7.49999987	     66.18462232	    -19.03308096	      5.41873877	     93.05796297	      1.62416785	     20.13188840	     13.40062987	     -7.49999987	    -26.02187047	      4.32221244	      8.36389720	     13.17617638	    -11.73796017	      3.19487301	     60.35919646	     92.87053957	     18.35245082	      2.65451270	      5.37274762	     43.96386455	     61.80954509
     12.53333330	     11.31975651	     -5.24458932	     -3.46077718	     -0.16589894	      0.68113060	     -0.04259393	     61.19183856	     -3.70723456	     -4.78348299	     87.30341796	      1.52373209	     18.04516337	     -4.79860017	     -7.49999987	     66.18983555	    -19.08083777	      5.49871939	     93.00658395	      1.62327112	     20.14453929	     13.27693286	     -7.49999987	    -26.15941748	      4.43049782	      8.67514559	     12.91453789	    -11.67694208	      2.18985094	     60.64362976	     97.76452906	     18.62641844	      2.65677438	      6.25268962	     43.52222147	     61.54219352
     12.55000000	     11.30163233	     -5.19162814	     -3.48142352	     -0.16617921	      0.68057414	     -0.04260454	     61.20724001	     -3.71766670	     -4.71998942	     87.30170791	      1.52370225	     18.10461791	     -4.77766056	     -7.49999987	     66.15498355	    -19.06841548	      5.43139061	     92.96718598	      1.62258349	     20.17119466	     13.23605144	     -7.49999987	    -26.31552073	      4.40492911	      8.54699662	     12.91915827	    -11.56911779	      2.29974956	     60.81596181	     96.43675038	     18.60715466	      2.57294707	      6.16263311	     43.91093325	     61.46189578
     12.56666670	     11.30707974	     -5.30776350	     -3.51053943	     -0.16596472	      0.68113677	     -0.04258576	     61.12616200	     -3.62805786	     -4.84028506	     87.22963576	      1.52244435	     18.09508246	     -4.71806174	     -7.49999987	     66.15579110	    -19.17987536	      5.52407701	     92.94552357	      1.62220541	     20.27134391	     13.51060784	     -7.49999987	    -26.39785223	      4.52839624	      8.51727602	     12.95985193	    -11.57830477	      2.39970995	     60.82150820	     95.91640056	     18.49167087	      2.58034826	      6.05951372	     44.00887428	     61.39283644
     12.58333330	     11.19109160	     -5.34422374	     -3.52078528	     -0.16607920	      0.68058203	     -0.04265132	     61.24529703	     -3.59946591	     -4.88963029	     87.24008505	      1.52262672	     18.28117746	     -4.64425783	     -7.49999987	     66.30199429	    -19.20722064	      5.55515602	     92.97052766	      1.62264181	     20.28484061	     13.46217077	     -7.49999987	    -26.48858731	      4.62068639	      8.45759943	     12.99389304	    -11.57938958	      2.52770254	     61.03546899	     94.63993881	     18.52100151	      2.54032028	      6.06818869	     44.09915481	     61.37334871
     12.60000000	     11.14799090	     -5.40355724	     -3.46386628	     -0.16564477	      0.68092089	     -0.04268867	     61.31070520	     -3.58456965	     -4.95011505	     87.29101118	      1.52351555	     18.37018619	     -4.67155499	     -7.49999987	     66.41397714	    -19.17582624	      5.66418191	     93.02303482	      1.62355824	     20.22897027	     13.42376207	     -7.49999987	    -26.53773855	      4.70157990	      8.39243230	     12.97747181	    -11.62168242	      2.53134088	     61.20214310	     94.13133475	     18.43185249	      2.52093134	      6.04364773	     44.21704934	     61.36641429
     12.61666670	     11.10331776	     -5.47428725	     -3.43131027	     -0.16587300	      0.68038310	     -0.04285462	     61.34913235	     -3.57825820	     -5.05103890	     87.26452824	      1.52305334	     18.43409026	     -4.65954121	     -7.49999987	     66.53461777	    -19.17766490	      5.76719002	     93.06125765	      1.62422535	     20.19561050	     13.45645401	     -7.49999987	    -26.60489170	      4.86728591	      8.40425965	     12.86588811	    -11.69880555	      2.54685684	     61.41928340	     93.82752910	     18.29071140	      2.41377653	      6.10463224	     44.41005473	     61.40473946
     12.63333330	     11.13923699	     -5.45912190	     -3.46688379	     -0.16548810	      0.68101482	     -0.04277564	     61.27428558	     -3.53810994	     -5.00963305	     87.22272237	      1.52232369	     18.42689498	     -4.64510952	     -7.49999987	     66.45180472	    -19.18698096	      5.74165257	     93.02911512	      1.62366436	     20.27046629	     13.52564144	     -7.49999987	    -26.75447016	      4.85525471	      8.40282587	     12.81451433	    -11.72741508	      2.58532101	     61.63200990	     93.27322116	     17.95756171	      2.24883305	      6.02299191	     44.97401815	     61.36480364
